<svg id="Icons" xmlns="http://www.w3.org/2000/svg" viewBox="0 0 150 150"><defs><style>.cls-1{fill:#ffbe30;}.cls-2{opacity:0.1;}</style></defs><title>car</title><circle class="cls-1" cx="75" cy="75" r="57.28"/><circle class="cls-2" cx="38.78" cy="95.25" r="10.65"/><circle class="cls-2" cx="113.35" cy="95.25" r="10.65"/><path class="cls-2" d="M82.46,44.12H56.89c-.77,0-1.49,0-2.2.07-8.78,11.64-9.52,19.1-9.52,19.1H108S95.64,44.12,82.46,44.12Z"/><path d="M38.78,107.9A12.65,12.65,0,1,1,51.43,95.25,12.66,12.66,0,0,1,38.78,107.9Zm0-21.3a8.65,8.65,0,1,0,8.65,8.65A8.66,8.66,0,0,0,38.78,86.6Z"/><path d="M113.35,107.9A12.65,12.65,0,1,1,126,95.25,12.66,12.66,0,0,1,113.35,107.9Zm0-21.3A8.65,8.65,0,1,0,122,95.25,8.66,8.66,0,0,0,113.35,86.6Z"/><path d="M102.7,97.25H49.43a2,2,0,0,1,0-4H102.7a2,2,0,0,1,0,4Z"/><path d="M128.26,97.25H124a2,2,0,0,1,0-4h4.26c6.36,0,10.79-5.68,10.79-10.78,0-9.83-.23-9.89-12.27-12.74-1.61-.38-3.4-.8-5.39-1.3l-13.82-3.19a2,2,0,0,1-1.23-.86c-.12-.18-12-18.26-23.88-18.26H56.89c-11.48,0-14.73,5.21-17.86,10.26-2.73,4.38-5.54,8.91-13,8.91H19.61A8.67,8.67,0,0,0,11,74v8.52A10.8,10.8,0,0,0,21.74,93.25h6.39a2,2,0,0,1,0,4H21.74A14.8,14.8,0,0,1,7,82.47V74A12.68,12.68,0,0,1,19.61,61.29H26c5.26,0,7.1-2.94,9.63-7C39,48.85,43.18,42.12,56.89,42.12H82.46c12.79,0,24.34,15.83,26.78,19.4l13.08,3c2,.5,3.79.92,5.38,1.3,12.91,3.06,15.35,4,15.35,16.63C143.05,89.46,137,97.25,128.26,97.25Z"/><path d="M17.48,82.34H9a2,2,0,1,1,0-4h8.53a2,2,0,1,1,0,4Z"/><path d="M140,82.34h-7.46a2,2,0,0,1,0-4H140a2,2,0,0,1,0,4Z"/><path d="M108,65.29H45.17a2,2,0,0,1-2-2.19c0-.33.89-8.2,10-20.21a2,2,0,1,1,3.18,2.41c-5.61,7.42-7.83,13.07-8.68,16H108a2,2,0,0,1,0,4Z"/><path d="M70.74,65.29a2,2,0,0,1-2-2V44.12a2,2,0,1,1,4,0V63.29A2,2,0,0,1,70.74,65.29Z"/></svg>