<svg id="Icons" xmlns="http://www.w3.org/2000/svg" viewBox="0 0 150 150"><defs><style>.cls-1{fill:#ffbe30;}.cls-2{opacity:0.1;}</style></defs><title>flight</title><circle class="cls-1" cx="75" cy="66.64" r="57.28"/><path class="cls-2" d="M125.52,60.3a8.34,8.34,0,0,0,3.59-11.14h0a8.22,8.22,0,0,0-11.06-3.62l-13.7,7A32.67,32.67,0,0,1,92.87,77.06Z"/><path d="M137,142.64H13a2,2,0,0,1,0-4H137a2,2,0,0,1,0,4Z"/><path d="M42,102.65a14.87,14.87,0,0,1-9.34-3c-.06,0-.11-.1-.17-.15L18.59,85.68A2.06,2.06,0,0,1,18,84a2,2,0,0,1,1.07-1.47l7.32-3.76a2,2,0,0,1,1.36-.17L42.71,82l14.44-7.42L40.34,55.79a2,2,0,0,1-.47-1.7,2,2,0,0,1,1.05-1.42l7.32-3.75c9.16-4.71,30.67,8.28,36.05,11.7l32.85-16.86a10.21,10.21,0,0,1,13.75,4.49,10.33,10.33,0,0,1-4.46,13.83L53.18,99.68A24.73,24.73,0,0,1,42,102.65Zm-6.78-6.11c3.85,2.95,9.88,2.8,16.15-.42l73.24-37.6a6.31,6.31,0,0,0,2.72-8.46,6.19,6.19,0,0,0-3.63-3.12,6.1,6.1,0,0,0-4.72.38L85.09,64.71a2,2,0,0,1-2-.11c-9.62-6.3-27.09-15.16-33-12.13l-5,2.58L61.86,73.81a2,2,0,0,1-.57,3.12l-17.4,8.93a2,2,0,0,1-1.36.17L27.59,82.61l-4.23,2.17Z"/><path d="M92.87,79.06a2,2,0,0,1-1.29-3.53,30.47,30.47,0,0,0,10.77-23,2,2,0,0,1,2.06-1.94,2,2,0,0,1,1.94,2.06,34.92,34.92,0,0,1-12.19,26A2,2,0,0,1,92.87,79.06Z"/></svg>