<svg id="Icons" xmlns="http://www.w3.org/2000/svg" viewBox="0 0 150 150"><defs><style>.cls-1{fill:#ffbe30;}.cls-2{fill:none;}</style></defs><title>vaccination</title><circle class="cls-1" cx="75" cy="75" r="49.88"/><path class="cls-2" d="M40,99.71a7.57,7.57,0,0,0,1.19,9.13h0A7.57,7.57,0,0,0,50.29,110l-.42-.43-9.47-9.47Z"/><path class="cls-2" d="M82.13,49.51l8.81,8.82a1.93,1.93,0,1,1-2.72,2.73L79.4,52.24,76.67,55,80.74,59A1.93,1.93,0,1,1,78,61.77L73.94,57.7l-2.73,2.73,4.07,4.07a1.93,1.93,0,0,1-2.73,2.73l-4.07-4.07-2.73,2.73,8.82,8.82a1.93,1.93,0,0,1-2.73,2.73L63,68.62l-2.73,2.73,4.07,4.07a1.93,1.93,0,0,1-2.73,2.73l-4.07-4.07-2.73,2.73,4.07,4.07a1.93,1.93,0,1,1-2.73,2.73L52.1,79.54l-2.73,2.73,8.82,8.82a1.93,1.93,0,1,1-2.73,2.73L46.64,85l-3.51,3.51a6.3,6.3,0,0,0,0,8.89l9.47,9.47a6.3,6.3,0,0,0,8.89,0l45.22-45.22L88.35,43.29Z"/><path class="cls-2" d="M119,61.89l-8.31-8.31L96.42,39.31,88.11,31a2.33,2.33,0,0,0-3.3,3.3l3.54,3.54,23.81,23.81,3.54,3.54a2.33,2.33,0,0,0,3.3-3.3Z"/><path d="M121.73,59.16l-8.31-8.31,5.9-5.91,3.45,3.44a6.19,6.19,0,0,0,8.76,0l.66-.65a6.21,6.21,0,0,0,0-8.76L111,17.81a6.21,6.21,0,0,0-8.76,0l-.66.66a6.21,6.21,0,0,0,0,8.76l3.45,3.45-5.91,5.9-8.31-8.31A6.19,6.19,0,0,0,82.08,37l3.54,3.53L40.4,85.78A10.18,10.18,0,0,0,37.9,96a11.4,11.4,0,0,0-.71,14.07L16.57,130.7a1.93,1.93,0,0,0,2.73,2.73l20.62-20.62A11.4,11.4,0,0,0,54,112.1a10.18,10.18,0,0,0,10.23-2.5l45.22-45.22L113,67.92a6.19,6.19,0,0,0,8.76-8.76Zm-6,6-3.54-3.54L88.35,37.84,84.81,34.3a2.33,2.33,0,0,1,3.3-3.3l8.31,8.31,14.27,14.27L119,61.89a2.33,2.33,0,0,1-3.3,3.3ZM61.49,106.87a6.3,6.3,0,0,1-8.89,0L43.13,97.4a6.3,6.3,0,0,1,0-8.89L46.64,85l8.82,8.82a1.93,1.93,0,1,0,2.73-2.73l-8.82-8.82,2.73-2.73,4.07,4.07a1.93,1.93,0,1,0,2.73-2.73l-4.07-4.07,2.73-2.73,4.07,4.07a1.93,1.93,0,0,0,2.73-2.73l-4.07-4.07L63,68.62l8.82,8.82a1.93,1.93,0,0,0,2.73-2.73l-8.82-8.82,2.73-2.73,4.07,4.07a1.93,1.93,0,0,0,2.73-2.73l-4.07-4.07,2.73-2.73L78,61.77A1.93,1.93,0,1,0,80.74,59L76.67,55l2.73-2.73,8.82,8.82a1.93,1.93,0,1,0,2.72-2.73l-8.81-8.82,6.22-6.22,18.36,18.36ZM50.29,110a7.57,7.57,0,0,1-9.13-1.19h0A7.57,7.57,0,0,1,40,99.71l.43.42,9.47,9.47ZM104.34,21.2l.66-.66a2.34,2.34,0,0,1,3.3,0L129.46,41.7a2.34,2.34,0,0,1,0,3.3l-.66.66a2.34,2.34,0,0,1-3.3,0l-3.45-3.45L107.79,28l-3.45-3.45A2.34,2.34,0,0,1,104.34,21.2Zm3.45,12.21,8.8,8.8-5.9,5.91-8.81-8.81Z"/><path class="cls-2" d="M107.79,28l14.26,14.26,3.45,3.45a2.34,2.34,0,0,0,3.3,0l.66-.66a2.34,2.34,0,0,0,0-3.3L108.3,20.54a2.34,2.34,0,0,0-3.3,0l-.66.66a2.34,2.34,0,0,0,0,3.3Z"/><rect class="cls-2" x="105.06" y="34.54" width="8.35" height="12.45" transform="translate(3.17 89.18) rotate(-45)"/></svg>