<svg id="Icons" xmlns="http://www.w3.org/2000/svg" viewBox="0 0 150 150"><defs><style>.cls-1{fill:#ffbe30;}.cls-2{opacity:0.1;}</style></defs><title>hotel</title><circle class="cls-1" cx="75" cy="69.67" r="61.67"/><rect class="cls-2" x="34.27" y="40" width="14" height="14" rx="2"/><rect class="cls-2" x="78.27" y="62" width="14" height="14" rx="2"/><rect class="cls-2" x="56.27" y="84" width="14" height="14" rx="2"/><rect class="cls-2" x="26.27" y="132" width="24" height="10"/><rect class="cls-2" x="76.27" y="132" width="24" height="10"/><path d="M111.27,30h-96a2,2,0,1,1,0-4h96a2,2,0,0,1,0,4Z"/><path d="M111.27,144h-96a2,2,0,0,1,0-4h96a2,2,0,0,1,0,4Z"/><path d="M100.27,144h-74a2,2,0,0,1-2-2V28a2,2,0,0,1,2-2h74a2,2,0,0,1,2,2V142A2,2,0,0,1,100.27,144Zm-72-4h70V30h-70Z"/><path d="M74.27,144h-22a4,4,0,0,1-4-4V116a4,4,0,0,1,4-4h22a4,4,0,0,1,4,4v24A4,4,0,0,1,74.27,144Zm0-4v0Zm-22-24v24h22V116Z"/><path d="M63.27,144a2,2,0,0,1-2-2V114a2,2,0,1,1,4,0v28A2,2,0,0,1,63.27,144Z"/><path d="M50.27,134h-23a2,2,0,0,1,0-4h23a2,2,0,1,1,0,4Z"/><path d="M99.27,134h-23a2,2,0,1,1,0-4h23a2,2,0,0,1,0,4Z"/><path d="M63.27,30h-28a2,2,0,0,1-2-2V18A2,2,0,0,1,36,16.12l28,10A2,2,0,0,1,63.27,30Zm-26-4H51.73L37.27,20.84Z"/><path d="M91.27,30h-28a2,2,0,0,1-.67-3.88l28-10A2,2,0,0,1,93.27,18V28A2,2,0,0,1,91.27,30ZM74.82,26H89.27V20.84Z"/><path d="M46.27,56h-10a4,4,0,0,1-4-4V42a4,4,0,0,1,4-4h10a4,4,0,0,1,4,4V52A4,4,0,0,1,46.27,56Zm-10-14V52h10V42Z"/><path d="M90.27,56h-10a4,4,0,0,1-4-4V42a4,4,0,0,1,4-4h10a4,4,0,0,1,4,4V52A4,4,0,0,1,90.27,56Zm-10-14V52h10V42Z"/><path d="M68.27,56h-10a4,4,0,0,1-4-4V42a4,4,0,0,1,4-4h10a4,4,0,0,1,4,4V52A4,4,0,0,1,68.27,56Zm-10-14V52h10V42Z"/><path d="M46.27,78h-10a4,4,0,0,1-4-4V64a4,4,0,0,1,4-4h10a4,4,0,0,1,4,4V74A4,4,0,0,1,46.27,78Zm-10-14V74h10V64Z"/><path d="M90.27,78h-10a4,4,0,0,1-4-4V64a4,4,0,0,1,4-4h10a4,4,0,0,1,4,4V74A4,4,0,0,1,90.27,78Zm-10-14V74h10V64Z"/><path d="M68.27,78h-10a4,4,0,0,1-4-4V64a4,4,0,0,1,4-4h10a4,4,0,0,1,4,4V74A4,4,0,0,1,68.27,78Zm-10-14V74h10V64Z"/><path d="M46.27,100h-10a4,4,0,0,1-4-4V86a4,4,0,0,1,4-4h10a4,4,0,0,1,4,4V96A4,4,0,0,1,46.27,100Zm-10-14V96h10V86Z"/><path d="M90.27,100h-10a4,4,0,0,1-4-4V86a4,4,0,0,1,4-4h10a4,4,0,0,1,4,4V96A4,4,0,0,1,90.27,100Zm-10-14V96h10V86Z"/><path d="M68.27,100h-10a4,4,0,0,1-4-4V86a4,4,0,0,1,4-4h10a4,4,0,0,1,4,4V96A4,4,0,0,1,68.27,100Zm-10-14V96h10V86Z"/></svg>