<svg id="Icons" xmlns="http://www.w3.org/2000/svg" viewBox="0 0 150 150"><defs><style>.cls-1{fill:#ffbe30;}.cls-2{opacity:0.1;}</style></defs><title>packing</title><circle class="cls-1" cx="75" cy="75" r="61.67"/><path class="cls-2" d="M89,26.33H61a6,6,0,0,0-6,6v10h8v-8H87v8h8v-10A6,6,0,0,0,89,26.33Z"/><path class="cls-2" d="M20,112.33v4a6,6,0,0,0,6,6h98a6,6,0,0,0,6-6v-4Z"/><rect class="cls-2" x="104" y="62.33" width="8" height="14" rx="2"/><rect class="cls-2" x="38" y="62.33" width="8" height="14" rx="2"/><path d="M95,44.33H55a2,2,0,0,1-2-2v-10a8,8,0,0,1,8-8H89a8,8,0,0,1,8,8v10A2,2,0,0,1,95,44.33Zm-38-4H93v-8a4,4,0,0,0-4-4H61a4,4,0,0,0-4,4Z"/><path d="M85,36.33v4H65v-4H85m2-4H63a2,2,0,0,0-2,2v10H89v-10a2,2,0,0,0-2-2Z"/><path d="M124,124.33H26a8,8,0,0,1-8-8v-68a8,8,0,0,1,8-8h98a8,8,0,0,1,8,8v68A8,8,0,0,1,124,124.33Zm-98-80a4,4,0,0,0-4,4v68a4,4,0,0,0,4,4h98a4,4,0,0,0,4-4v-68a4,4,0,0,0-4-4Z"/><path d="M42,64.33a2,2,0,0,1-2-2v-20a2,2,0,0,1,4,0v20A2,2,0,0,1,42,64.33Z"/><path d="M108,64.33a2,2,0,0,1-2-2v-20a2,2,0,1,1,4,0v20A2,2,0,0,1,108,64.33Z"/><path d="M42,124.33a2,2,0,0,1-2-2v-46a2,2,0,0,1,4,0v46A2,2,0,0,1,42,124.33Z"/><path d="M108,124.33a2,2,0,0,1-2-2v-46a2,2,0,1,1,4,0v46A2,2,0,0,1,108,124.33Z"/><path d="M44,78.33H40a4,4,0,0,1-4-4v-10a4,4,0,0,1,4-4h4a4,4,0,0,1,4,4v10A4,4,0,0,1,44,78.33Zm0-4v0Zm-4-10v10h4v-10Z"/><path d="M110,78.33h-4a4,4,0,0,1-4-4v-10a4,4,0,0,1,4-4h4a4,4,0,0,1,4,4v10A4,4,0,0,1,110,78.33Zm0-4v0Zm-4-10v10h4v-10Z"/><path d="M130,114.33H20a2,2,0,1,1,0-4H130a2,2,0,0,1,0,4Z"/></svg>