<svg id="Icons" xmlns="http://www.w3.org/2000/svg" viewBox="0 0 150 150"><defs><style>.cls-1{fill:#ffbd2f;}.cls-2{opacity:0.1;}</style></defs><title>currency</title><circle class="cls-1" cx="70.84" cy="75" r="61.67"/><path class="cls-2" d="M52.84,48h67L121,43.33,52.81,25,47,46.85v0A16,16,0,0,0,52.84,48Z"/><rect class="cls-2" x="118.84" y="74" width="20" height="14" rx="2"/><path d="M132.84,76a2,2,0,0,1-2-2V54a4,4,0,0,0-4-4h-74A18,18,0,0,1,35.17,35.37a2,2,0,1,1,3.92-.75A14,14,0,0,0,52.84,46h74a8,8,0,0,1,8,8V74A2,2,0,0,1,132.84,76Z"/><path d="M116.84,44a2,2,0,0,1-2-2V35h-32a2,2,0,0,1,0-4h34a2,2,0,0,1,2,2v9A2,2,0,0,1,116.84,44Z"/><path d="M116.84,123h-72a18,18,0,0,1-18-18V49a18,18,0,0,1,18-18h5a2,2,0,0,1,0,4h-5a14,14,0,0,0-14,14v56a14,14,0,0,0,14,14h72a14,14,0,0,0,14-14V88a2,2,0,0,1,4,0v17A18,18,0,0,1,116.84,123Z"/><path d="M116.15,113h-1.33a2,2,0,0,1,0-4h1.33a13.19,13.19,0,0,0,2.36-.21,2,2,0,0,1,.68,3.94A17.18,17.18,0,0,1,116.15,113Zm-9.29,0h-4a2,2,0,0,1,0-4h4a2,2,0,0,1,0,4Zm-12,0h-4a2,2,0,0,1,0-4h4a2,2,0,0,1,0,4Zm-12,0h-4a2,2,0,0,1,0-4h4a2,2,0,0,1,0,4Zm-12,0h-4a2,2,0,0,1,0-4h4a2,2,0,0,1,0,4Zm-12,0h-4a2,2,0,0,1,0-4h4a2,2,0,0,1,0,4Zm-12,0H45.51a17.93,17.93,0,0,1-3-.26,2,2,0,0,1-1.62-2.31,2,2,0,0,1,2.29-1.63,14.15,14.15,0,0,0,2.35.2h1.34a2,2,0,0,1,0,4Z"/><path d="M136.84,90h-16a4,4,0,0,1-4-4V76a4,4,0,0,1,4-4h16a4,4,0,0,1,4,4V86A4,4,0,0,1,136.84,90Zm-16-14V86h16V76Z"/><path d="M119.59,50a1.79,1.79,0,0,1-.51-.07,2,2,0,0,1-1.42-2.45l.73-2.73L54.16,27.45,48.85,47.36a2,2,0,1,1-3.86-1l5.82-21.85a2,2,0,0,1,.94-1.21,2,2,0,0,1,1.52-.2L121.36,41.4a2,2,0,0,1,1.41,2.45l-1.24,4.67A2,2,0,0,1,119.59,50Z"/></svg>