<svg id="Icons" xmlns="http://www.w3.org/2000/svg" viewBox="0 0 150 150"><defs><style>.cls-1{fill:#ffbe30;}.cls-2{opacity:0.1;}</style></defs><title>recommendations</title><circle class="cls-1" cx="81.83" cy="75" r="61.67"/><path class="cls-2" d="M87.5,31c5.67,3.67,9-5,9-5l.4-1.45A12,12,0,0,0,75.5,32S81.83,27.33,87.5,31Z"/><path class="cls-2" d="M24.42,95.92,8.08,112.27a2,2,0,0,0,0,2.79l8.42,8.44c.83-.83,4.5-4,8-.5l13.66-13.34Z"/><path d="M87.5,46a14,14,0,1,1,14-14A14,14,0,0,1,87.5,46Zm0-24a10,10,0,1,0,10,10A10,10,0,0,0,87.5,22Z"/><path d="M107.5,91A7,7,0,0,1,103,89.33l-5.76-4.85a2,2,0,1,1,2.58-3l5.76,4.85a3.08,3.08,0,0,0,4.24-.34,3,3,0,0,0-.35-4.23L97.21,71.31a2,2,0,0,1,2.59-3L112,78.66A7,7,0,0,1,107.5,91Z"/><path d="M102.5,132a7,7,0,0,1-6.77-5.21L87,93.8l-8.73,33A7,7,0,0,1,71.5,132a6.77,6.77,0,0,1-1.79-.24,7,7,0,0,1-5-8.55L73.52,90l1.7-23.32a18.23,18.23,0,0,0-3.72,3.89V82a7,7,0,0,1-14,0V70c0-8.48,13.32-22,29.1-22,10.25,0,13.9,7,13.9,13.48v0c0,.52,0,8.45,0,8.45h0V90.09l8.77,33.12a7,7,0,0,1-5,8.56A7.2,7.2,0,0,1,102.5,132ZM87,84h0a2,2,0,0,1,1.93,1.49l10.67,40.3a3,3,0,0,0,3.66,2.13,3,3,0,0,0,2.14-3.67L96.57,90.86a1.79,1.79,0,0,1-.07-.51V70c0-6.45,0-8,0-8.5h0c0-2.85-1-9.48-9.9-9.48-13.74,0-25.1,11.9-25.1,18V82a3,3,0,0,0,6,0V70a2,2,0,0,1,.27-1,21.28,21.28,0,0,1,8.9-7.81,2,2,0,0,1,2.83,2l-2,27.34a1.51,1.51,0,0,1-.07.37L68.6,124.23a3,3,0,0,0,.31,2.28,3,3,0,0,0,5.49-.74l10.67-40.3A2,2,0,0,1,87,84Z"/><path d="M25.5,126a2,2,0,0,1-1.41-3.42l37-37a2,2,0,0,1,2.83,2.83l-37,37A2,2,0,0,1,25.5,126Z"/><path d="M16.5,127a2,2,0,0,1-1.41-.59L5.66,117a4,4,0,0,1,0-5.62L27.85,89.16a4,4,0,0,1,5.62,0l13.44,13.42a2,2,0,1,1-2.82,2.83L30.65,92,8.49,114.18l9.43,9.41A2,2,0,0,1,16.5,127Z"/><path d="M21.5,132a6,6,0,1,1,6-6A6,6,0,0,1,21.5,132Zm0-8a2,2,0,1,0,2,2A2,2,0,0,0,21.5,124Z"/><path d="M39,112.5a2,2,0,0,1-1.41-.59l-14.5-14.5a2,2,0,0,1,2.83-2.83l14.5,14.5a2,2,0,0,1,0,2.83A2,2,0,0,1,39,112.5Z"/><path d="M75.51,34a2,2,0,0,1-1.2-3.61c.31-.22,7.53-5.44,14.28-1.07a2.52,2.52,0,0,0,2.3.48c1.85-.6,3.36-3.54,3.75-4.52a2,2,0,0,1,3.73,1.44c-.22.57-2.25,5.59-6.24,6.88a6.49,6.49,0,0,1-5.72-.92c-4.41-2.86-9.51.78-9.73.93A2,2,0,0,1,75.51,34Z"/></svg>