<?xml version="1.0" encoding="utf-8"?>
<!-- Generator: Adobe Illustrator 23.0.0, SVG Export Plug-In . SVG Version: 6.00 Build 0)  -->
<svg version="1.1" id="Layer_1" xmlns="http://www.w3.org/2000/svg" xmlns:xlink="http://www.w3.org/1999/xlink" x="0px" y="0px"
	 viewBox="0 0 100 100" style="enable-background:new 0 0 100 100;" xml:space="preserve">
<style type="text/css">
	.st0{fill:#FFFFFF;}
</style>
<g>
	<path class="st0" d="M50,53.46H15.42c-1.91,0-3.46-1.55-3.46-3.46c0-1.91,1.55-3.46,3.46-3.46h5.96h0.96v-3.46h-6.92
		c-3.82,0-6.92,3.1-6.92,6.92s3.1,6.92,6.92,6.92H50c3.81,0,6.92,3.1,6.92,6.92c0,3.81-3.1,6.92-6.92,6.92v3.46
		c5.73,0,10.38-4.64,10.38-10.38C60.38,58.1,55.73,53.46,50,53.46z"/>
	<path class="st0" d="M53.46,25.79v3.46c3.81,0,6.92,3.1,6.92,6.92c0,3.81-3.1,6.92-6.92,6.92H25.81v3.46h27.65
		c5.73,0,10.38-4.65,10.38-10.38C63.83,30.44,59.19,25.79,53.46,25.79z"/>
	<path class="st0" d="M63.83,46.54V50h9.51v-0.09c4.36-0.44,7.78-4.08,7.78-8.56c0-4.78-3.87-8.65-8.65-8.65v3.46
		c2.86,0,5.19,2.33,5.19,5.19c0,2.86-2.33,5.19-5.19,5.19c-0.07,0-0.14-0.02-0.22-0.02h-8.41c0.01,0.01,0.02,0.02,0.02,0.02H63.83z"
		/>
	<path class="st0" d="M82.85,53.46H63.83v3.46h12.14c-0.01,0.01-0.01,0.01-0.02,0.02h6.68c0.07,0,0.14-0.02,0.22-0.02
		c2.86,0,5.19,2.33,5.19,5.19s-2.33,5.19-5.19,5.19v3.46c4.78,0,8.65-3.87,8.65-8.65S87.63,53.46,82.85,53.46z"/>
</g>
</svg>
