<?xml version="1.0" encoding="utf-8"?>
<!-- Generator: Adobe Illustrator 23.0.0, SVG Export Plug-In . SVG Version: 6.00 Build 0)  -->
<svg version="1.1" id="Layer_1" xmlns="http://www.w3.org/2000/svg" xmlns:xlink="http://www.w3.org/1999/xlink" x="0px" y="0px"
	 viewBox="0 0 100 100" style="enable-background:new 0 0 100 100;" xml:space="preserve">
<style type="text/css">
	.st0{fill:#FFFFFF;}
</style>
<g>
	<path class="st0" d="M79.09,35.62C76.38,22.97,65.15,13.49,51.7,13.49c-10.91,0-20.34,6.25-24.97,15.34
		c-0.45-0.03-0.9-0.07-1.36-0.07C14.12,28.77,5,37.89,5,49.14c0,11.22,9.07,20.32,20.27,20.37v0.01h3.5v-3.4h-2.72l-0.76-0.01
		C15.97,66.07,8.4,58.46,8.4,49.14c0-9.36,7.62-16.98,16.98-16.98c0.3,0,0.59,0.02,0.88,0.04l0.25,0.02l2.24,0.15l1.01-2
		c4.23-8.32,12.64-13.49,21.94-13.49c11.53,0,21.65,8.18,24.07,19.44l0.54,2.52l2.57,0.16c7.14,0.44,12.73,6.39,12.73,13.54
		c0,7.47-6.05,13.55-13.51,13.58c-0.08-0.01-0.16-0.01-0.23-0.01l-3.47,0.01h-1.47v3.4h4.86v-0.01c0.08,0,0.15,0.01,0.23,0.01
		c9.38,0,16.98-7.6,16.98-16.98C95,43.52,87.96,36.17,79.09,35.62z"/>
	<polygon class="st0" points="42.36,67.86 42.36,63.39 46.05,65.47 47.21,63.4 43.02,61.04 47.21,58.68 46.05,56.6 42.36,58.68 
		42.36,54.28 38.96,54.28 38.96,58.76 35.14,56.6 33.98,58.68 38.17,61.04 33.98,63.4 35.14,65.47 38.96,63.32 38.96,67.86 	"/>
	<polygon class="st0" points="51.12,75.25 47.43,77.33 47.43,72.92 44.04,72.92 44.04,77.41 40.22,75.25 39.05,77.33 43.25,79.69 
		39.05,82.05 40.22,84.12 44.04,81.97 44.04,86.51 47.43,86.51 47.43,82.04 51.12,84.12 52.29,82.05 48.09,79.69 52.29,77.33 	"/>
	<polygon class="st0" points="66.43,63.4 62.74,65.47 62.74,61.07 59.35,61.07 59.35,65.55 55.53,63.4 54.36,65.47 58.56,67.83 
		54.36,70.19 55.53,72.26 59.35,70.11 59.35,74.65 62.74,74.65 62.74,70.19 66.43,72.26 67.6,70.19 63.4,67.83 67.6,65.47 	"/>
</g>
</svg>
