<?xml version="1.0" encoding="utf-8"?>
<!-- Generator: Adobe Illustrator 23.0.0, SVG Export Plug-In . SVG Version: 6.00 Build 0)  -->
<svg version="1.1" id="Layer_1" xmlns="http://www.w3.org/2000/svg" xmlns:xlink="http://www.w3.org/1999/xlink" x="0px" y="0px"
	 viewBox="0 0 100 100" style="enable-background:new 0 0 100 100;" xml:space="preserve">
<style type="text/css">
	.st0{fill:#FFFFFF;}
</style>
<g>
	<g>
		<path class="st0" d="M79.09,38.15C76.38,25.51,65.15,16.02,51.7,16.02c-10.91,0-20.34,6.25-24.97,15.34
			c-0.45-0.03-0.9-0.07-1.36-0.07C14.12,31.3,5,40.42,5,51.67c0,11.22,9.07,20.32,20.27,20.37v0h3.5v-3.4h-2.72l-0.76,0
			C15.97,68.61,8.4,60.99,8.4,51.67c0-9.36,7.62-16.98,16.98-16.98c0.3,0,0.59,0.02,0.88,0.04l0.25,0.02l2.24,0.15l1.01-2
			c4.23-8.32,12.64-13.49,21.94-13.49c11.53,0,21.65,8.18,24.07,19.44l0.54,2.52l2.57,0.16c7.14,0.44,12.73,6.39,12.73,13.54
			c0,7.47-6.05,13.55-13.51,13.58c-0.08,0-0.16-0.01-0.23-0.01l-3.47,0.01h-4.86v3.4h8.26v-0.01c0.08,0,0.15,0.01,0.23,0.01
			c9.38,0,16.98-7.6,16.98-16.98C95,46.05,87.96,38.7,79.09,38.15z"/>
	</g>
	<g>
		<circle class="st0" cx="36.42" cy="61.15" r="2.55"/>
	</g>
	<g>
		<circle class="st0" cx="43.21" cy="71.2" r="2.55"/>
	</g>
	<g>
		<circle class="st0" cx="56.79" cy="71.2" r="2.55"/>
	</g>
	<g>
		<circle class="st0" cx="50" cy="61.15" r="2.55"/>
	</g>
	<g>
		<circle class="st0" cx="63.58" cy="61.15" r="2.55"/>
	</g>
	<g>
		<circle class="st0" cx="36.42" cy="81.43" r="2.55"/>
	</g>
	<g>
		<circle class="st0" cx="50" cy="81.43" r="2.55"/>
	</g>
	<g>
		<circle class="st0" cx="63.58" cy="81.43" r="2.55"/>
	</g>
</g>
</svg>
