<?xml version="1.0" encoding="utf-8"?>
<!-- Generator: Adobe Illustrator 23.0.0, SVG Export Plug-In . SVG Version: 6.00 Build 0)  -->
<svg version="1.1" id="Layer_1" xmlns="http://www.w3.org/2000/svg" xmlns:xlink="http://www.w3.org/1999/xlink" x="0px" y="0px"
	 viewBox="0 0 100 100" style="enable-background:new 0 0 100 100;" xml:space="preserve">
<style type="text/css">
	.st0{fill:#FFFFFF;}
</style>
<g>
	<path class="st0" d="M79.09,34.77C76.38,22.12,65.15,12.64,51.7,12.64c-10.91,0-20.34,6.25-24.97,15.34
		c-0.45-0.03-0.9-0.07-1.36-0.07C14.12,27.92,5,37.04,5,48.29c0,11.22,9.07,20.32,20.27,20.37v0.01h1.8v-3.4h-1.03l-0.76-0.01
		C15.97,65.22,8.4,57.61,8.4,48.29c0-9.36,7.62-16.98,16.98-16.98c0.3,0,0.59,0.02,0.88,0.04l0.25,0.02l2.24,0.15l1.01-2
		c4.23-8.32,12.64-13.49,21.94-13.49c11.53,0,21.65,8.18,24.07,19.44L76.3,38l2.57,0.16c7.14,0.44,12.73,6.39,12.73,13.54
		c0,7.47-6.05,13.54-13.51,13.58c-0.08-0.01-0.16-0.01-0.23-0.01l-1.54,0.01v3.4h1.47v-0.01c0.08,0,0.15,0.01,0.23,0.01
		c9.38,0,16.98-7.6,16.98-16.98C95,42.67,87.96,35.32,79.09,34.77z"/>
	
		<rect x="33.91" y="57.47" transform="matrix(0.8191 -0.5736 0.5736 0.8191 -31.9752 32.5424)" class="st0" width="3.4" height="18.99"/>
	
		<rect x="64.44" y="57.47" transform="matrix(0.8191 -0.5736 0.5736 0.8191 -26.4536 50.0509)" class="st0" width="3.4" height="18.99"/>
	<polygon class="st0" points="53.98,73.77 56.98,73.77 57.71,73.77 61.13,73.77 50.23,58.22 47.45,60.17 54.6,70.38 51.6,70.38 
		47.45,70.38 49.61,73.46 51.5,76.16 59.34,87.36 62.12,85.41 54.28,74.21 	"/>
</g>
</svg>
