<?xml version="1.0" encoding="utf-8"?>
<!-- Generator: Adobe Illustrator 23.0.0, SVG Export Plug-In . SVG Version: 6.00 Build 0)  -->
<svg version="1.1" id="Layer_1" xmlns="http://www.w3.org/2000/svg" xmlns:xlink="http://www.w3.org/1999/xlink" x="0px" y="0px"
	 viewBox="0 0 100 100" style="enable-background:new 0 0 100 100;" xml:space="preserve">
<style type="text/css">
	.st0{fill:#FFFFFF;}
</style>
<g>
	<path class="st0" d="M50,27.49c-12.43,0-22.5,10.07-22.5,22.5c0,12.43,10.07,22.5,22.5,22.5s22.5-10.08,22.5-22.5
		C72.5,37.56,62.43,27.49,50,27.49z M50,69.03c-10.5,0-19.04-8.54-19.04-19.04c0-10.5,8.54-19.04,19.04-19.04
		c10.5,0,19.04,8.54,19.04,19.04C69.04,60.49,60.5,69.03,50,69.03z"/>
	<rect x="48.26" y="5" class="st0" width="3.46" height="17.31"/>
	<rect x="48.26" y="77.69" class="st0" width="3.46" height="17.31"/>
	<rect x="5" y="48.27" class="st0" width="17.3" height="3.46"/>
	<rect x="77.68" y="48.27" class="st0" width="17.32" height="3.46"/>
	
		<rect x="66.42" y="22.81" transform="matrix(0.7071 -0.7071 0.7071 0.7071 4.7396 60.525)" class="st0" width="18.02" height="3.46"/>
	
		<rect x="15.52" y="73.71" transform="matrix(0.7071 -0.7071 0.7071 0.7071 -46.1593 39.4394)" class="st0" width="18.02" height="3.46"/>
	
		<rect x="22.81" y="15.54" transform="matrix(0.7071 -0.7071 0.7071 0.7071 -10.1723 24.5416)" class="st0" width="3.46" height="18.02"/>
	
		<rect x="73.71" y="66.44" transform="matrix(0.7071 -0.7071 0.7071 0.7071 -31.2562 75.4478)" class="st0" width="3.46" height="18.02"/>
</g>
</svg>
