<?xml version="1.0" encoding="utf-8"?>
<!-- Generator: Adobe Illustrator 23.0.0, SVG Export Plug-In . SVG Version: 6.00 Build 0)  -->
<svg version="1.1" id="Layer_1" xmlns="http://www.w3.org/2000/svg" xmlns:xlink="http://www.w3.org/1999/xlink" x="0px" y="0px"
	 viewBox="0 0 100 100" style="enable-background:new 0 0 100 100;" xml:space="preserve">
<style type="text/css">
	.st0{fill:#FFFFFF;}
</style>
<g>
	<path class="st0" d="M83.96,56.47c-2.39-11.15-12.29-19.51-24.15-19.51c-3.61,0-7.04,0.78-10.13,2.17
		c-2.76-5.3-8.28-8.92-14.66-8.92c-9.13,0-16.54,7.4-16.54,16.54c0,4.07,1.49,7.78,3.92,10.65c-2.36,3.04-3.78,6.85-3.78,11
		c0,9.89,8,17.92,17.88,17.97v0h46.31v-0.01c0.07,0,0.14,0.01,0.21,0.01c8.27,0,14.98-6.7,14.98-14.98
		C98,63.44,91.79,56.96,83.96,56.47z M35.02,33.52c5.11,0,9.52,2.93,11.73,7.18c-3.8,2.38-6.91,5.77-8.95,9.79
		c-0.4-0.03-0.79-0.06-1.2-0.06c-4.57,0-8.73,1.72-11.91,4.54c-1.81-2.26-2.9-5.11-2.9-8.22C21.79,39.45,27.72,33.52,35.02,33.52z
		 M83.09,83.07c-0.06,0-0.13-0.01-0.19-0.01l-3.38-0.07v0.08H37.5l-0.98,0c-8.04-0.04-14.59-6.62-14.59-14.66
		c0-8.09,6.58-14.67,14.66-14.67c0.25,0,0.49,0.02,0.74,0.04l0.25,0.02l2.17,0.14l0.99-1.94c3.68-7.23,10.98-11.72,19.07-11.72
		c10.02,0,18.82,7.11,20.92,16.9l0.52,2.45l2.5,0.16c6.13,0.38,10.93,5.49,10.93,11.63C94.69,77.81,89.49,83.03,83.09,83.07z"/>
	<rect x="33.37" y="13.62" class="st0" width="3.31" height="13.18"/>
	<rect x="2" y="45.02" class="st0" width="13.18" height="3.31"/>
	
		<rect x="14.75" y="21.53" transform="matrix(0.7071 -0.7071 0.7071 0.7071 -15.0805 19.8396)" class="st0" width="3.31" height="13.19"/>
	
		<rect x="47.06" y="26.48" transform="matrix(0.7071 -0.7071 0.7071 0.7071 -4.1768 46.1764)" class="st0" width="13.18" height="3.31"/>
</g>
</svg>
