<?xml version="1.0" encoding="utf-8"?>
<!-- Generator: Adobe Illustrator 23.0.0, SVG Export Plug-In . SVG Version: 6.00 Build 0)  -->
<svg version="1.1" id="Layer_1" xmlns="http://www.w3.org/2000/svg" xmlns:xlink="http://www.w3.org/1999/xlink" x="0px" y="0px"
	 viewBox="0 0 100 100" style="enable-background:new 0 0 100 100;" xml:space="preserve">
<style type="text/css">
	.st0{fill:#FFFFFF;}
</style>
<g>
	<polygon class="st0" points="60.22,74.6 48.54,57.9 45.75,59.85 57.44,76.54 59.33,79.24 65.23,87.67 68.02,85.72 62.11,77.29 	"/>
	<polygon class="st0" points="73.81,74.59 62.12,57.9 59.34,59.85 71.03,76.54 72.74,78.98 78.82,87.67 81.61,85.72 75.52,77.03 	
		"/>
	<polygon class="st0" points="46.64,74.6 34.95,57.9 32.17,59.85 43.86,76.54 45.87,79.42 51.65,87.67 54.43,85.72 48.65,77.47 	"/>
	<path class="st0" d="M79.09,34.45C76.38,21.81,65.15,12.33,51.7,12.33c-10.91,0-20.34,6.25-24.97,15.34
		c-0.45-0.03-0.9-0.07-1.36-0.07C14.12,27.6,5,36.72,5,47.98C5,59.2,14.07,68.3,25.27,68.35v0h3.5v-3.4h-2.72l-0.76,0
		C15.97,64.91,8.4,57.29,8.4,47.98C8.4,38.62,16.01,31,25.38,31c0.3,0,0.59,0.02,0.88,0.04l0.25,0.02l2.24,0.15l1.01-2
		c4.23-8.32,12.64-13.49,21.94-13.49c11.53,0,21.65,8.18,24.07,19.44l0.54,2.52l2.57,0.16c7.14,0.44,12.73,6.39,12.73,13.54
		c0,7.47-6.05,13.55-13.51,13.58c-0.08,0-0.16-0.01-0.23-0.01l-1.77,0.01h0.23v3.4h1.47v-0.01c0.08,0,0.15,0.01,0.23,0.01
		c9.38,0,16.98-7.6,16.98-16.98C95,42.36,87.96,35,79.09,34.45z"/>
</g>
</svg>
