<?xml version="1.0" encoding="utf-8"?>
<!-- Generator: Adobe Illustrator 22.1.0, SVG Export Plug-In . SVG Version: 6.00 Build 0)  -->
<svg version="1.1" id="Layer_1" xmlns="http://www.w3.org/2000/svg" xmlns:xlink="http://www.w3.org/1999/xlink" x="0px" y="0px"
	 viewBox="0 0 156 33" style="enable-background:new 0 0 156 33;" xml:space="preserve">
<style type="text/css">
	.st0{enable-background:new    ;}
	.st1{fill:#FFFFFF;}
</style>
<g>
	<g class="st0">
		<path class="st1" d="M10.1,6.2c4.7,0,8.3,3.6,8.3,9c0,5.5-3.7,9.2-8.3,9.2c-2.9,0-5-1.5-6.2-2.9v11H0.3V6.5h3.7v2.6
			C5.1,7.6,7.2,6.2,10.1,6.2z M9.3,9.4c-2.7,0-5.4,2.1-5.4,5.9c0,3.8,2.6,6,5.4,6c2.8,0,5.4-2.2,5.4-6C14.7,11.4,12.1,9.4,9.3,9.4z"
			/>
		<path class="st1" d="M29.2,6.2c3,0,5,1.4,6.1,2.9V6.5H39v17.7h-3.7v-2.6c-1.1,1.5-3.2,2.9-6.2,2.9c-4.6,0-8.3-3.8-8.3-9.2
			C20.8,9.8,24.5,6.2,29.2,6.2z M29.9,9.4c-2.7,0-5.4,2.1-5.4,5.9c0,3.8,2.6,6,5.4,6c2.8,0,5.4-2.1,5.4-6
			C35.3,11.5,32.7,9.4,29.9,9.4z"/>
		<path class="st1" d="M51.3,6.2c4.3,0,7.2,2.1,8.2,5.9h-3.9c-0.6-1.7-2-2.8-4.2-2.8c-3,0-4.9,2.2-4.9,6c0,3.9,2,6.1,4.9,6.1
			c2.2,0,3.5-1,4.2-2.8h3.9c-1,3.5-3.8,5.9-8.2,5.9c-5.1,0-8.7-3.6-8.7-9.1C42.6,9.8,46.2,6.2,51.3,6.2z"/>
		<path class="st1" d="M63.1,0.4h3.7v13.8l6.4-7.7h5.1l-8.2,8.9l8.2,8.8h-4.9l-6.5-7.6v7.6h-3.7V0.4z"/>
	</g>
	<g class="st0">
		<path class="st1" d="M81.3,10.8h-2.2V6.3h2.2V1.9h5.5v4.4h3.6v4.6h-3.6V18c0,1.1,0.4,1.5,1.7,1.5h2v4.7h-2.8
			c-3.7,0-6.3-1.6-6.3-6.2V10.8z"/>
		<path class="st1" d="M93.5,0.4h5.5v8.2c1.1-1.5,3-2.6,5.5-2.6c4.1,0,6.8,2.8,6.8,7.6v10.5h-5.5v-9.7c0-2.4-1.3-3.8-3.4-3.8
			c-2.1,0-3.4,1.3-3.4,3.8v9.7h-5.5V0.4z"/>
		<path class="st1" d="M121.9,6c2.7,0,4.6,1.2,5.5,2.8V6.3h5.5v17.9h-5.5v-2.5c-1,1.6-2.9,2.8-5.6,2.8c-4.4,0-7.9-3.6-7.9-9.2
			C114,9.5,117.5,6,121.9,6z M123.5,10.8c-2.1,0-3.9,1.5-3.9,4.4s1.9,4.5,3.9,4.5c2.1,0,3.9-1.6,3.9-4.4S125.6,10.8,123.5,10.8z"/>
		<path class="st1" d="M137.7,10.8h-2.2V6.3h2.2V1.9h5.5v4.4h3.6v4.6h-3.6V18c0,1.1,0.4,1.5,1.7,1.5h2v4.7h-2.8
			c-3.7,0-6.3-1.6-6.3-6.2V10.8z"/>
		<path class="st1" d="M152.5,24.4c-2,0-3.3-1.3-3.3-3c0-1.7,1.3-3,3.3-3c1.9,0,3.2,1.3,3.2,3C155.7,23.1,154.4,24.4,152.5,24.4z"/>
	</g>
</g>
</svg>
